<svg width="21" height="20" viewBox="0 0 21 20" fill="none" xmlns="http://www.w3.org/2000/svg">
<path d="M0 9.92977C0.1 9.00977 0.15 7.85977 0.35 6.72977C0.89 3.76977 2.67 1.83977 5.59 1.11977C9.12 0.249774 12.71 0.229774 16.21 1.25977C19.42 2.19977 20.62 4.38977 20.83 7.60977C20.87 8.21977 20.59 8.59977 19.97 8.61977C18.95 8.64977 17.94 8.64977 16.92 8.62977C16.31 8.62977 15.98 8.18977 15.9 7.66977C15.59 5.56977 14.15 4.66977 12.27 4.44977C10.99 4.29977 9.65 4.38977 8.37 4.56977C6.47 4.83977 5.26 6.01977 5.04 7.92977C4.89 9.23977 4.87 10.5998 5.03 11.9098C5.25 13.7598 6.4 14.9098 8.25 15.3198C10.06 15.7298 11.85 15.6998 13.63 15.1298C14.83 14.7398 15.65 13.9798 15.92 12.6998C16.09 11.8898 16.56 11.4698 17.46 11.5398C18.2 11.5998 18.96 11.5398 19.71 11.5598C20.64 11.5798 20.89 11.8598 20.84 12.7798C20.68 15.9398 18.97 18.2698 15.95 19.1898C12.58 20.2098 9.15 20.2698 5.76 19.2498C2.32 18.2298 0.24 15.3998 0.1 11.8198C0.08 11.2598 0.04 10.6998 0 9.92977Z" fill="white"/>
</svg>
