<svg width="143" height="22" viewBox="0 0 143 22" fill="none" xmlns="http://www.w3.org/2000/svg">
<g clip-path="url(#clip0_1794_112)">
<path d="M75.05 2.72011C74.96 3.84011 74.87 4.86011 74.79 5.88011C75.81 3.95011 77.09 2.36011 79.47 2.45011C81.81 2.54011 83.1 4.13011 84.01 6.11011C84.55 5.35011 84.97 4.55011 85.58 3.92011C87.75 1.66011 91.34 1.99011 93.17 4.56011C94.22 6.04011 94.76 7.73011 94.84 9.49011C95.01 13.2401 95.01 17.0001 95.06 20.7501C95.07 21.4501 94.67 21.7601 94 21.7601C93.28 21.7601 92.55 21.7601 91.83 21.7601C90.74 21.7601 90.42 21.4401 90.42 20.3101C90.42 18.3401 90.49 16.3601 90.46 14.3901C90.43 12.5301 90.4 10.6601 90.17 8.82011C89.99 7.38011 88.83 6.64011 87.61 6.90011C86.65 7.10011 85.92 7.99011 85.76 9.35011C85.63 10.4801 85.57 11.6301 85.56 12.7701C85.53 15.3001 85.56 17.8301 85.55 20.3701C85.55 21.4601 85.26 21.7501 84.18 21.7501C83.54 21.7501 82.9 21.7501 82.25 21.7501C81.25 21.7401 80.92 21.4201 80.92 20.4001C80.92 17.2801 80.94 14.1601 80.9 11.0401C80.89 10.1501 80.74 9.24011 80.53 8.37011C80.32 7.51011 79.73 6.93011 78.77 6.88011C77.8 6.83011 77.1 7.31011 76.76 8.17011C76.5 8.83011 76.29 9.55011 76.28 10.2501C76.23 13.5801 76.26 16.9101 76.25 20.2401C76.25 21.4701 75.97 21.7501 74.76 21.7601C74.06 21.7601 73.37 21.7501 72.67 21.7601C71.89 21.7801 71.55 21.3701 71.5 20.6501C71.49 20.4601 71.5 20.2801 71.5 20.0901C71.5 14.8401 71.5 9.59011 71.5 4.34011C71.5 2.94011 71.73 2.72011 73.13 2.72011C73.72 2.72011 74.3 2.72011 75.06 2.72011H75.05Z" fill="white"/>
<path d="M108.45 2.43018C109.76 2.65018 111.42 2.79018 113 3.21018C116.15 4.05018 117.83 6.24018 118.36 9.39018C118.69 11.4102 118.76 13.4302 118.3 15.4202C117.55 18.6202 115.49 20.6102 112.33 21.4402C109.7 22.1302 107.03 22.1402 104.39 21.5702C100.25 20.6702 97.81 17.8202 97.65 13.5802C97.59 11.9002 97.69 10.1602 98.05 8.52018C98.78 5.16018 101.18 3.46018 104.45 2.88018C105.65 2.67018 106.89 2.60018 108.46 2.43018H108.45ZM113.74 12.3302C113.74 12.3302 113.7 12.3302 113.68 12.3302C113.68 11.8802 113.7 11.4202 113.68 10.9702C113.57 8.94018 112.6 7.74018 110.63 7.19018C109.03 6.74018 107.4 6.77018 105.8 7.10018C104.2 7.43018 102.94 8.32018 102.66 10.0002C102.45 11.2702 102.44 12.6002 102.54 13.8802C102.75 16.6802 104.5 17.6002 106.4 17.8402C107.65 18.0002 108.96 17.9202 110.22 17.7302C112.18 17.4302 113.32 16.1802 113.64 14.2302C113.74 13.6002 113.72 12.9602 113.75 12.3202L113.74 12.3302Z" fill="white"/>
<path d="M27.48 7.08C28.05 6.21 28.48 5.38 29.08 4.68C30.85 2.61 33.25 2.22 35.79 2.47C36.84 2.58 37.92 2.76 38.91 3.12C42.17 4.3 43.77 6.9 44.05 10.13C44.36 13.67 44.24 17.26 44.29 20.82C44.29 21.44 43.9 21.73 43.31 21.75C42.48 21.77 41.65 21.76 40.82 21.75C39.8 21.75 39.48 21.43 39.47 20.41C39.46 17.8 39.47 15.19 39.45 12.57C39.45 11.94 39.36 11.29 39.21 10.68C38.63 8.3 36.92 6.99 34.32 6.87C30.51 6.71 28.48 8.65 28.4 12.64C28.35 15.2 28.39 17.76 28.38 20.32C28.38 21.54 28.16 21.75 26.93 21.76C26.21 21.76 25.48 21.76 24.76 21.76C23.81 21.75 23.51 21.46 23.51 20.51C23.5 17.9 23.51 15.29 23.51 12.67C23.51 8.94 23.51 5.21 23.51 1.47C23.51 0.2 23.72 0 25.02 0C25.53 0 26.04 0 26.55 0C27.71 0 27.96 0.25 27.89 1.43C27.78 3.29 27.63 5.14 27.49 7.07L27.48 7.08Z" fill="white"/>
<path d="M125.55 6.6598C125.73 6.4198 125.82 6.3298 125.88 6.2198C126.99 3.9898 128.8 2.7598 131.29 2.4998C133.65 2.2598 135.95 2.4598 138.07 3.5798C140.81 5.0298 142.01 7.5698 142.22 10.4598C142.47 13.8798 142.37 17.3298 142.41 20.7598C142.41 21.3998 142.05 21.7398 141.4 21.7498C140.6 21.7598 139.8 21.7498 138.99 21.7498C137.89 21.7498 137.61 21.4798 137.61 20.3898C137.61 18.0198 137.62 15.6498 137.6 13.2798C137.6 12.5398 137.56 11.7798 137.41 11.0598C136.89 8.4398 135.22 7.0398 132.5 6.8798C128.93 6.6798 126.61 8.7698 126.54 12.3398C126.49 14.9998 126.53 17.6698 126.52 20.3298C126.52 21.4698 126.24 21.7498 125.12 21.7598C124.34 21.7598 123.57 21.7398 122.79 21.7598C122.02 21.7798 121.66 21.3898 121.59 20.6698C121.57 20.4898 121.58 20.2998 121.58 20.1098C121.58 14.8598 121.58 9.6098 121.58 4.3598C121.58 2.9298 121.81 2.7098 123.26 2.7098C123.93 2.7098 124.6 2.7398 125.27 2.7098C125.82 2.6798 125.99 2.8998 125.91 3.4198C125.83 3.9498 125.79 4.4798 125.73 5.0098C125.68 5.4998 125.63 5.9898 125.56 6.6698L125.55 6.6598Z" fill="white"/>
<path d="M0 11.9298C0.1 11.0098 0.15 9.85977 0.35 8.72977C0.89 5.76977 2.67 3.83977 5.59 3.11977C9.12 2.24977 12.71 2.22977 16.21 3.25977C19.42 4.19977 20.62 6.38977 20.83 9.60977C20.87 10.2198 20.59 10.5998 19.97 10.6198C18.95 10.6498 17.94 10.6498 16.92 10.6298C16.31 10.6298 15.98 10.1898 15.9 9.66977C15.59 7.56977 14.15 6.66977 12.27 6.44977C10.99 6.29977 9.65 6.38977 8.37 6.56977C6.47 6.83977 5.26 8.01977 5.04 9.92977C4.89 11.2398 4.87 12.5998 5.03 13.9098C5.25 15.7598 6.4 16.9098 8.25 17.3198C10.06 17.7298 11.85 17.6998 13.63 17.1298C14.83 16.7398 15.65 15.9798 15.92 14.6998C16.09 13.8898 16.56 13.4698 17.46 13.5398C18.2 13.5998 18.96 13.5398 19.71 13.5598C20.64 13.5798 20.89 13.8598 20.84 14.7798C20.68 17.9398 18.97 20.2698 15.95 21.1898C12.58 22.2098 9.15 22.2698 5.76 21.2498C2.32 20.2298 0.24 17.3998 0.1 13.8198C0.08 13.2598 0.04 12.6998 0 11.9298Z" fill="white"/>
<path d="M64.2 17.9098C61.33 22.8598 54.54 22.6198 51.09 20.6898C48.98 19.5098 47.88 17.5298 47.72 15.2698C47.44 11.4498 47.49 7.60978 47.41 3.77978C47.4 3.06978 47.83 2.71978 48.54 2.71978C49.34 2.71978 50.15 2.70978 50.95 2.71978C51.88 2.73978 52.19 3.03978 52.19 3.98978C52.2 6.27978 52.19 8.56978 52.2 10.8698C52.2 11.6698 52.21 12.4798 52.38 13.2598C52.99 16.1198 54.48 17.3498 57.44 17.5198C61.12 17.7398 63.21 15.7998 63.24 12.1298C63.26 9.51978 63.24 6.90978 63.24 4.28978C63.24 3.02978 63.54 2.72978 64.79 2.71978C65.49 2.71978 66.18 2.71978 66.88 2.71978C67.9 2.72978 68.22 3.03978 68.22 4.06978C68.22 8.14978 68.22 12.2298 68.21 16.2998C68.21 17.6598 68.21 19.0198 68.21 20.3798C68.21 21.4998 67.95 21.7498 66.85 21.7598C66.23 21.7598 65.62 21.7598 65 21.7598C64.1 21.7498 63.81 21.4298 63.9 20.5198C63.98 19.6498 64.1 18.7798 64.21 17.9098H64.2Z" fill="white"/>
</g>
<defs>
<clipPath id="clip0_1794_112">
<rect width="142.4" height="22" fill="white"/>
</clipPath>
</defs>
</svg>
